<svg xmlns="http://www.w3.org/2000/svg" id="Layer_161785c71f748d" data-name="Layer 1" viewBox="0 0 1140 600" aria-hidden="true" style="fill:url(#CerosGradient_idce4195859);" width="1140px" height="600px"><defs><linearGradient class="cerosgradient" data-cerosgradient="true" id="CerosGradient_idce4195859" gradientUnits="userSpaceOnUse" x1="50%" y1="100%" x2="50%" y2="0%"><stop offset="0%" stop-color="#F4F4F4"/><stop offset="100%" stop-color="#F4F4F4"/></linearGradient><linearGradient/><style>.cls-1-61785c71f748d{fill:#fff;stroke:#bfbfbf;stroke-linecap:round;stroke-linejoin:round;stroke-width:6px;}</style></defs><path class="cls-1-61785c71f748d" d="M792.17352,80.5c105.1156,0,190.32862,85.07593,190.32862,190.02245a191.92938,191.92938,0,0,1-.98273,19.42867l-.27893,1.82511,2.8454,2.12433A127.00167,127.00167,0,0,1,1030.5,392.16127C1030.5,462.48851,973.39661,519.5,902.95612,519.5H290.59692l-5.65676-.28513-4.61245.23251c-94.34557,0-170.82771-76.35922-170.82771-170.553s76.48214-170.553,170.82771-170.553l3.27323.165,4.31906-.2178h36.14685l3.8226-2.78314c43.52644-29.3161,100.55849-47.08646,162.99321-47.08646,46.82614,0,90.61316,9.99582,127.94284,27.36151l15.81659,8.10865,10.66467-14.23868A190.0614,190.0614,0,0,1,792.17352,80.5Z" style="fill:url(#CerosGradient_idce4195859);"/></svg>